<svg width="218" height="85" viewBox="0 0 218 85" fill="none" xmlns="http://www.w3.org/2000/svg">
<path d="M11.4557 63.9681C10.9593 65.1961 9.76722 66 8.44263 66H3.25343C0.928532 66 -0.644434 63.6299 0.258623 61.4876L24.918 2.98761C25.4257 1.78311 26.6057 1 27.9128 1H36.4813C37.7794 1 38.953 1.77246 39.4664 2.96476L64.6539 61.4648C65.5775 63.6099 64.0044 66 61.6688 66H55.9119C54.5982 66 53.4137 65.2092 52.9101 63.9958L47.2161 50.2769C46.7125 49.0636 45.5281 48.2727 44.2144 48.2727H29.7121C27.4214 48.2727 25.8495 45.9663 26.6872 43.8342L28.241 39.8797C28.7296 38.636 29.9297 37.8182 31.2659 37.8182H37.1786C39.497 37.8182 41.0699 35.4602 40.1792 33.3197L34.9387 20.7248C33.8222 18.0415 30.0142 18.0608 28.925 20.7552L11.4557 63.9681Z" fill="url(#paint0_linear_85_24)"/>
<path d="M39.7487 64.0699L36.1376 55.945C35.1824 53.7958 36.7556 51.375 39.1075 51.375H40.9319C42.2163 51.375 43.3802 52.1314 43.9018 53.3051L47.5129 61.43C48.4681 63.5792 46.8949 66 44.543 66H42.7186C41.4342 66 40.2704 65.2436 39.7487 64.0699Z" fill="url(#paint1_linear_85_24)"/>
<path d="M116.583 67.75V65.5H125.278V67.75H122.222V78H119.639V67.75H116.583ZM129.439 78.2778C128.504 78.2778 127.68 78.0833 126.967 77.6944C126.254 77.3056 125.698 76.7731 125.3 76.0972C124.902 75.412 124.703 74.6296 124.703 73.75C124.703 72.9074 124.898 72.162 125.286 71.5139C125.675 70.8565 126.198 70.338 126.856 69.9583C127.523 69.5787 128.259 69.3889 129.064 69.3889C129.888 69.3889 130.624 69.5787 131.273 69.9583C131.921 70.3287 132.43 70.838 132.8 71.4861C133.18 72.1343 133.37 72.8704 133.37 73.6944V74.5417H128.286C128.055 74.5417 127.833 74.5278 127.62 74.5C127.407 74.4722 127.194 74.4398 126.981 74.4028C127.092 74.9583 127.365 75.412 127.8 75.7639C128.245 76.1065 128.81 76.2778 129.495 76.2778C130.023 76.2778 130.495 76.1713 130.911 75.9583C131.337 75.7454 131.685 75.4815 131.953 75.1667L132.481 77.3333C132.064 77.6481 131.592 77.8843 131.064 78.0417C130.546 78.1991 130.004 78.2778 129.439 78.2778ZM126.925 72.9444C127.388 72.8426 127.842 72.7917 128.286 72.7917H129.759C130.018 72.7917 130.263 72.8009 130.495 72.8194C130.726 72.838 130.944 72.8704 131.148 72.9167C131.009 72.4167 130.754 72.0231 130.384 71.7361C130.023 71.4491 129.573 71.3056 129.036 71.3056C128.527 71.3056 128.083 71.4537 127.703 71.75C127.333 72.037 127.073 72.4352 126.925 72.9444ZM138.793 78.2778C137.969 78.2778 137.214 78.0787 136.529 77.6806C135.844 77.2824 135.298 76.7454 134.89 76.0694C134.492 75.3935 134.293 74.6481 134.293 73.8333C134.293 73.0093 134.492 72.2639 134.89 71.5972C135.298 70.9213 135.844 70.3843 136.529 69.9861C137.214 69.588 137.969 69.3889 138.793 69.3889C139.367 69.3889 139.909 69.4861 140.418 69.6806C140.936 69.8657 141.395 70.1435 141.793 70.5139L141.168 72.9722C140.936 72.5926 140.626 72.2639 140.237 71.9861C139.858 71.6991 139.409 71.5556 138.89 71.5556C138.455 71.5556 138.066 71.6574 137.724 71.8611C137.381 72.0648 137.112 72.338 136.918 72.6806C136.724 73.0231 136.626 73.4074 136.626 73.8333C136.626 74.25 136.724 74.6343 136.918 74.9861C137.112 75.3287 137.381 75.6019 137.724 75.8056C138.066 76.0093 138.455 76.1111 138.89 76.1111C139.409 76.1111 139.858 75.9722 140.237 75.6944C140.626 75.4074 140.936 75.0741 141.168 74.6944L141.793 77.1528C141.395 77.5231 140.936 77.8056 140.418 78C139.909 78.1852 139.367 78.2778 138.793 78.2778ZM143.049 78V64.6667H145.466V70.2917C145.762 69.9954 146.1 69.7731 146.48 69.625C146.869 69.4676 147.281 69.3889 147.716 69.3889C148.309 69.3889 148.86 69.5324 149.369 69.8194C149.887 70.0972 150.304 70.5093 150.619 71.0556C150.943 71.5926 151.105 72.2454 151.105 73.0139V78H148.688V73.3333C148.688 72.8704 148.549 72.4583 148.272 72.0972C147.994 71.7361 147.596 71.5556 147.077 71.5556C146.661 71.5556 146.286 71.6991 145.952 71.9861C145.628 72.2639 145.466 72.7037 145.466 73.3056V78H143.049ZM152.776 78V69.6667H154.943V70.5833C155.239 70.1944 155.605 69.8981 156.04 69.6944C156.475 69.4907 156.943 69.3889 157.443 69.3889C158.035 69.3889 158.586 69.5324 159.095 69.8194C159.614 70.0972 160.031 70.5093 160.345 71.0556C160.67 71.5926 160.832 72.2454 160.832 73.0139V78H158.415V73.3333C158.415 72.8704 158.276 72.4583 157.998 72.0972C157.72 71.7361 157.322 71.5556 156.804 71.5556C156.387 71.5556 156.012 71.6991 155.679 71.9861C155.355 72.2639 155.193 72.7037 155.193 73.3056V78H152.776ZM166.586 78.2778C165.762 78.2778 165.007 78.0787 164.322 77.6806C163.637 77.2824 163.091 76.7454 162.683 76.0694C162.285 75.3935 162.086 74.6481 162.086 73.8333C162.086 73.0093 162.285 72.2639 162.683 71.5972C163.091 70.9213 163.637 70.3843 164.322 69.9861C165.007 69.588 165.762 69.3889 166.586 69.3889C167.419 69.3889 168.174 69.588 168.85 69.9861C169.535 70.3843 170.077 70.9213 170.475 71.5972C170.882 72.2639 171.086 73.0093 171.086 73.8333C171.086 74.6481 170.882 75.3935 170.475 76.0694C170.077 76.7454 169.535 77.2824 168.85 77.6806C168.174 78.0787 167.419 78.2778 166.586 78.2778ZM166.586 76.1111C167.003 76.1111 167.378 76.0093 167.711 75.8056C168.054 75.6019 168.322 75.3287 168.516 74.9861C168.72 74.6343 168.822 74.25 168.822 73.8333C168.822 73.4074 168.72 73.0231 168.516 72.6806C168.322 72.338 168.054 72.0648 167.711 71.8611C167.378 71.6574 167.003 71.5556 166.586 71.5556C166.169 71.5556 165.79 71.6574 165.447 71.8611C165.114 72.0648 164.845 72.338 164.641 72.6806C164.447 73.0231 164.35 73.4074 164.35 73.8333C164.35 74.25 164.447 74.6343 164.641 74.9861C164.845 75.3287 165.114 75.6019 165.447 75.8056C165.79 76.0093 166.169 76.1111 166.586 76.1111ZM172.53 78V64.6667H174.947V78H172.53ZM180.883 78.2778C180.059 78.2778 179.304 78.0787 178.619 77.6806C177.934 77.2824 177.387 76.7454 176.98 76.0694C176.582 75.3935 176.383 74.6481 176.383 73.8333C176.383 73.0093 176.582 72.2639 176.98 71.5972C177.387 70.9213 177.934 70.3843 178.619 69.9861C179.304 69.588 180.059 69.3889 180.883 69.3889C181.716 69.3889 182.471 69.588 183.147 69.9861C183.832 70.3843 184.374 70.9213 184.772 71.5972C185.179 72.2639 185.383 73.0093 185.383 73.8333C185.383 74.6481 185.179 75.3935 184.772 76.0694C184.374 76.7454 183.832 77.2824 183.147 77.6806C182.471 78.0787 181.716 78.2778 180.883 78.2778ZM180.883 76.1111C181.299 76.1111 181.674 76.0093 182.008 75.8056C182.35 75.6019 182.619 75.3287 182.813 74.9861C183.017 74.6343 183.119 74.25 183.119 73.8333C183.119 73.4074 183.017 73.0231 182.813 72.6806C182.619 72.338 182.35 72.0648 182.008 71.8611C181.674 71.6574 181.299 71.5556 180.883 71.5556C180.466 71.5556 180.087 71.6574 179.744 71.8611C179.411 72.0648 179.142 72.338 178.938 72.6806C178.744 73.0231 178.647 73.4074 178.647 73.8333C178.647 74.25 178.744 74.6343 178.938 74.9861C179.142 75.3287 179.411 75.6019 179.744 75.8056C180.087 76.0093 180.466 76.1111 180.883 76.1111ZM190.438 82.4444C189.79 82.4444 189.17 82.3472 188.577 82.1528C187.994 81.9676 187.489 81.713 187.063 81.3889L187.647 79C187.943 79.3981 188.332 79.7222 188.813 79.9722C189.295 80.2315 189.837 80.3611 190.438 80.3611C191.29 80.3611 191.952 80.1157 192.424 79.625C192.897 79.1435 193.133 78.5231 193.133 77.7639V77.1806C192.818 77.5046 192.438 77.7593 191.994 77.9444C191.559 78.1296 191.077 78.2222 190.549 78.2222C189.781 78.2222 189.082 78.0231 188.452 77.625C187.823 77.2269 187.318 76.6991 186.938 76.0417C186.568 75.375 186.383 74.6389 186.383 73.8333C186.383 73.0278 186.568 72.2917 186.938 71.625C187.318 70.9583 187.823 70.4306 188.452 70.0417C189.082 69.6435 189.781 69.4444 190.549 69.4444C191.087 69.4444 191.577 69.5417 192.022 69.7361C192.466 69.9213 192.846 70.1806 193.161 70.5139V69.6667H195.244V78.1111C195.244 79.0185 195.022 79.7963 194.577 80.4444C194.133 81.0926 193.545 81.588 192.813 81.9306C192.082 82.2731 191.29 82.4444 190.438 82.4444ZM190.841 76.0972C191.249 76.0972 191.619 75.9954 191.952 75.7917C192.286 75.588 192.549 75.3148 192.744 74.9722C192.948 74.6296 193.049 74.25 193.049 73.8333C193.049 73.4167 192.948 73.037 192.744 72.6944C192.549 72.3519 192.286 72.0787 191.952 71.875C191.619 71.6713 191.249 71.5694 190.841 71.5694C190.434 71.5694 190.063 71.6713 189.73 71.875C189.397 72.0787 189.128 72.3519 188.924 72.6944C188.73 73.037 188.633 73.4167 188.633 73.8333C188.633 74.25 188.73 74.6296 188.924 74.9722C189.128 75.3148 189.397 75.588 189.73 75.7917C190.063 75.9954 190.434 76.0972 190.841 76.0972ZM197.101 78V69.6667H199.517V78H197.101ZM198.309 68.4583C197.948 68.4583 197.642 68.3333 197.392 68.0833C197.142 67.8333 197.017 67.5278 197.017 67.1667C197.017 66.7963 197.142 66.4907 197.392 66.25C197.642 66 197.948 65.875 198.309 65.875C198.679 65.875 198.985 66 199.226 66.25C199.476 66.4907 199.601 66.7963 199.601 67.1667C199.601 67.5278 199.476 67.8333 199.226 68.0833C198.985 68.3333 198.679 68.4583 198.309 68.4583ZM205.689 78.2778C204.754 78.2778 203.93 78.0833 203.217 77.6944C202.504 77.3056 201.948 76.7731 201.55 76.0972C201.152 75.412 200.953 74.6296 200.953 73.75C200.953 72.9074 201.148 72.162 201.536 71.5139C201.925 70.8565 202.448 70.338 203.106 69.9583C203.773 69.5787 204.509 69.3889 205.314 69.3889C206.138 69.3889 206.874 69.5787 207.523 69.9583C208.171 70.3287 208.68 70.838 209.05 71.4861C209.43 72.1343 209.62 72.8704 209.62 73.6944V74.5417H204.536C204.305 74.5417 204.083 74.5278 203.87 74.5C203.657 74.4722 203.444 74.4398 203.231 74.4028C203.342 74.9583 203.615 75.412 204.05 75.7639C204.495 76.1065 205.06 76.2778 205.745 76.2778C206.273 76.2778 206.745 76.1713 207.161 75.9583C207.587 75.7454 207.935 75.4815 208.203 75.1667L208.731 77.3333C208.314 77.6481 207.842 77.8843 207.314 78.0417C206.796 78.1991 206.254 78.2778 205.689 78.2778ZM203.175 72.9444C203.638 72.8426 204.092 72.7917 204.536 72.7917H206.009C206.268 72.7917 206.513 72.8009 206.745 72.8194C206.976 72.838 207.194 72.8704 207.398 72.9167C207.259 72.4167 207.004 72.0231 206.634 71.7361C206.273 71.4491 205.823 71.3056 205.286 71.3056C204.777 71.3056 204.333 71.4537 203.953 71.75C203.583 72.037 203.323 72.4352 203.175 72.9444ZM213.696 78.2778C213.131 78.2778 212.557 78.1852 211.974 78C211.399 77.8148 210.95 77.5648 210.626 77.25L211.224 74.9722C211.492 75.3426 211.862 75.6667 212.335 75.9444C212.816 76.2222 213.311 76.3611 213.821 76.3611C214.163 76.3611 214.409 76.2963 214.557 76.1667C214.714 76.037 214.793 75.8796 214.793 75.6944C214.793 75.4815 214.714 75.3287 214.557 75.2361C214.399 75.1343 214.237 75.0509 214.071 74.9861L212.904 74.5417C212.645 74.4398 212.349 74.3009 212.015 74.125C211.682 73.9491 211.39 73.6991 211.14 73.375C210.899 73.0509 210.779 72.625 210.779 72.0972C210.779 71.6157 210.899 71.1713 211.14 70.7639C211.381 70.3565 211.728 70.0278 212.182 69.7778C212.645 69.5185 213.2 69.3889 213.849 69.3889C214.45 69.3889 215.011 69.4907 215.529 69.6944C216.057 69.8981 216.441 70.125 216.682 70.375L216.126 72.5694C215.811 72.162 215.436 71.8519 215.001 71.6389C214.575 71.4167 214.168 71.3056 213.779 71.3056C213.483 71.3056 213.265 71.3657 213.126 71.4861C212.987 71.6065 212.918 71.7454 212.918 71.9028C212.918 72.0231 212.964 72.1435 213.057 72.2639C213.159 72.375 213.325 72.4769 213.557 72.5694L214.64 72.9722C214.955 73.0833 215.288 73.2315 215.64 73.4167C216.001 73.6019 216.307 73.8611 216.557 74.1944C216.807 74.5185 216.932 74.9676 216.932 75.5417C216.932 76.3472 216.631 77.0046 216.029 77.5139C215.436 78.0231 214.659 78.2778 213.696 78.2778Z" fill="#B14CFF"/>
<path d="M70.475 65.25V31.5H76.1V33.7125C76.975 32.8375 78 32.15 79.175 31.65C80.375 31.15 81.6875 30.9 83.1125 30.9C85.2125 30.9 87.1125 31.4375 88.8125 32.5125C90.5125 33.5625 91.8625 34.9875 92.8625 36.7875C93.8875 38.5875 94.4 40.575 94.4 42.75C94.4 44.925 93.8875 46.9125 92.8625 48.7125C91.8625 50.4875 90.5125 51.9125 88.8125 52.9875C87.1125 54.0625 85.2125 54.6 83.1125 54.6C81.9125 54.6 80.8 54.4125 79.775 54.0375C78.75 53.6875 77.825 53.2 77 52.575V65.25H70.475ZM82.3625 48.8625C83.4625 48.8625 84.4625 48.5875 85.3625 48.0375C86.2625 47.4875 86.975 46.75 87.5 45.825C88.05 44.9 88.325 43.875 88.325 42.75C88.325 41.625 88.05 40.6 87.5 39.675C86.975 38.75 86.2625 38.0125 85.3625 37.4625C84.4625 36.9125 83.4625 36.6375 82.3625 36.6375C81.2625 36.6375 80.2625 36.9125 79.3625 37.4625C78.4625 38.0125 77.7375 38.75 77.1875 39.675C76.6625 40.6 76.4 41.625 76.4 42.75C76.4 43.875 76.6625 44.9 77.1875 45.825C77.7375 46.75 78.4625 47.4875 79.3625 48.0375C80.2625 48.5875 81.2625 48.8625 82.3625 48.8625ZM98.2133 65.25V31.5H103.838V33.7125C104.713 32.8375 105.738 32.15 106.913 31.65C108.113 31.15 109.426 30.9 110.851 30.9C112.951 30.9 114.851 31.4375 116.551 32.5125C118.251 33.5625 119.601 34.9875 120.601 36.7875C121.626 38.5875 122.138 40.575 122.138 42.75C122.138 44.925 121.626 46.9125 120.601 48.7125C119.601 50.4875 118.251 51.9125 116.551 52.9875C114.851 54.0625 112.951 54.6 110.851 54.6C109.651 54.6 108.538 54.4125 107.513 54.0375C106.488 53.6875 105.563 53.2 104.738 52.575V65.25H98.2133ZM110.101 48.8625C111.201 48.8625 112.201 48.5875 113.101 48.0375C114.001 47.4875 114.713 46.75 115.238 45.825C115.788 44.9 116.063 43.875 116.063 42.75C116.063 41.625 115.788 40.6 115.238 39.675C114.713 38.75 114.001 38.0125 113.101 37.4625C112.201 36.9125 111.201 36.6375 110.101 36.6375C109.001 36.6375 108.001 36.9125 107.101 37.4625C106.201 38.0125 105.476 38.75 104.926 39.675C104.401 40.6 104.138 41.625 104.138 42.75C104.138 43.875 104.401 44.9 104.926 45.825C105.476 46.75 106.201 47.4875 107.101 48.0375C108.001 48.5875 109.001 48.8625 110.101 48.8625ZM125.952 54V31.5H131.802V33.975C132.602 32.925 133.589 32.125 134.764 31.575C135.939 31.025 137.202 30.75 138.552 30.75C140.152 30.75 141.639 31.1375 143.014 31.9125C144.414 32.6625 145.539 33.775 146.389 35.25C147.264 36.7 147.702 38.4625 147.702 40.5375V54H141.177V41.4C141.177 40.15 140.802 39.0375 140.052 38.0625C139.302 37.0875 138.227 36.6 136.827 36.6C135.702 36.6 134.689 36.9875 133.789 37.7625C132.914 38.5125 132.477 39.7 132.477 41.325V54H125.952ZM152.288 54V31.5H158.813V54H152.288ZM155.551 28.2375C154.576 28.2375 153.751 27.9 153.076 27.225C152.401 26.55 152.063 25.725 152.063 24.75C152.063 23.75 152.401 22.925 153.076 22.275C153.751 21.6 154.576 21.2625 155.551 21.2625C156.551 21.2625 157.376 21.6 158.026 22.275C158.701 22.925 159.038 23.75 159.038 24.75C159.038 25.725 158.701 26.55 158.026 27.225C157.376 27.9 156.551 28.2375 155.551 28.2375ZM166.44 54V36.675H162.24V31.5H166.552V24H172.852V31.5H177.315V36.675H172.965V54H166.44ZM180.127 65.25L187.627 50.175L178.44 31.5H185.64L189.615 39.75C189.965 40.5 190.265 41.1875 190.515 41.8125C190.79 42.4125 191.015 43 191.19 43.575C191.39 43 191.627 42.4125 191.902 41.8125C192.177 41.1875 192.502 40.5 192.877 39.75L196.927 31.5H203.865L187.14 65.25H180.127Z" fill="url(#paint2_linear_85_24)"/>
<defs>
<linearGradient id="paint0_linear_85_24" x1="32.4612" y1="1" x2="63.5" y2="67.5" gradientUnits="userSpaceOnUse">
<stop stop-color="#7A4CFF"/>
<stop offset="1" stop-color="#3D6CFF"/>
</linearGradient>
<linearGradient id="paint1_linear_85_24" x1="32.4612" y1="1" x2="63.5" y2="67.5" gradientUnits="userSpaceOnUse">
<stop stop-color="#7A4CFF"/>
<stop offset="1" stop-color="#3D6CFF"/>
</linearGradient>
<linearGradient id="paint2_linear_85_24" x1="72" y1="28" x2="95" y2="80" gradientUnits="userSpaceOnUse">
<stop stop-color="#3D6CFF"/>
<stop offset="0.0001" stop-color="#5B72FB"/>
<stop offset="1" stop-color="#3D6CFF"/>
</linearGradient>
</defs>
</svg>
