<svg width="1200" height="630" viewBox="0 0 1200 630" xmlns="http://www.w3.org/2000/svg"
     font-family="Inter, -apple-system, BlinkMacSystemFont, 'Segoe UI', sans-serif">
  <defs>
    <linearGradient id="hGrad" x1="0" y1="0" x2="1200" y2="0" gradientUnits="userSpaceOnUse">
      <stop offset="0%" stop-color="#3D6CFF"/>
      <stop offset="50%" stop-color="#7A4CFF"/>
      <stop offset="100%" stop-color="#B14CFF"/>
    </linearGradient>
    <linearGradient id="lGrad" x1="0" y1="0" x2="77" y2="77" gradientUnits="userSpaceOnUse">
      <stop offset="0%" stop-color="#3D6CFF"/>
      <stop offset="55%" stop-color="#7A4CFF"/>
      <stop offset="100%" stop-color="#B14CFF"/>
    </linearGradient>
    <linearGradient id="cardBg" x1="200" y1="390" x2="1000" y2="530" gradientUnits="userSpaceOnUse">
      <stop offset="0%" stop-color="#F0EEFF"/>
      <stop offset="100%" stop-color="#E8F0FF"/>
    </linearGradient>
  </defs>

  <rect width="1200" height="630" fill="#FFFFFF"/>
  <rect x="0" y="0" width="1200" height="8" fill="url(#hGrad)"/>

  <!-- Logo mark (110x110) centered at x=600, y=36 -->
  <g transform="translate(545, 36) scale(1.4286)">
    <rect width="77" height="77" rx="25" fill="url(#lGrad)"/>
    <path d="M18.4557 73.9681C17.9593 75.1961 16.7672 76 15.4426 76H10.2534C7.92853 76 6.35557 73.6299 7.25862 71.4876L31.918 12.9876C32.4257 11.7831 33.6057 11 34.9128 11H43.4813C44.7794 11 45.953 11.7725 46.4664 12.9648L71.6539 71.4648C72.5775 73.6099 71.0044 76 68.6688 76H62.9119C61.5982 76 60.4137 75.2092 59.9101 73.9958L54.2161 60.2769C53.7125 59.0636 52.5281 58.2727 51.2144 58.2727H36.7121C34.4214 58.2727 32.8495 55.9663 33.6872 53.8342L35.241 49.8797C35.7296 48.636 36.9297 47.8182 38.2659 47.8182H44.1786C46.497 47.8182 48.0699 45.4602 47.1792 43.3197L41.9387 30.7248C40.8222 28.0415 37.0142 28.0608 35.925 30.7552L18.4557 73.9681Z" fill="white"/>
    <path d="M46.7487 74.0699L43.1376 65.945C42.1824 63.7958 43.7556 61.375 46.1075 61.375H47.9319C49.2163 61.375 50.3802 62.1314 50.9018 63.3051L54.5129 71.43C55.4681 73.5792 53.8949 76 51.543 76H49.7186C48.4342 76 47.2704 75.2436 46.7487 74.0699Z" fill="white"/>
  </g>

  <!-- Company name -->
  <text x="600" y="183" font-size="30" font-weight="700" fill="#0B1F3A" text-anchor="middle" letter-spacing="-0.5">Appnity Technologies</text>

  <!-- Headline -->
  <text x="600" y="240" font-size="42" font-weight="800" fill="#0B1F3A" text-anchor="middle">Let's Build Something</text>
  <text x="600" y="294" font-size="42" font-weight="800" fill="#7A4CFF" text-anchor="middle">Great Together.</text>

  <!-- Gradient divider -->
  <rect x="520" y="316" width="160" height="3" rx="1.5" fill="url(#hGrad)"/>

  <!-- Free consultation badge -->
  <rect x="426" y="334" width="348" height="44" rx="22" fill="url(#hGrad)"/>
  <text x="600" y="362" font-size="15" font-weight="700" fill="white" text-anchor="middle" letter-spacing="0.8">FREE FIRST CONSULTATION</text>

  <!-- Contact info card -->
  <rect x="200" y="398" width="800" height="140" rx="20" fill="url(#cardBg)"/>

  <!-- Column divider inside card -->
  <line x1="600" y1="415" x2="600" y2="522" stroke="#C8C0E0" stroke-width="1"/>

  <!-- Left column: Website + Phone -->
  <text x="250" y="440" font-size="12" font-weight="700" fill="#7A4CFF" letter-spacing="1.5">WEBSITE</text>
  <text x="250" y="464" font-size="18" font-weight="600" fill="#0B1F3A">appnitytechnologies.com</text>
  <text x="250" y="496" font-size="12" font-weight="700" fill="#7A4CFF" letter-spacing="1.5">PHONE</text>
  <text x="250" y="520" font-size="18" font-weight="600" fill="#0B1F3A">+91 96660 60167</text>

  <!-- Right column: Email + Location -->
  <text x="648" y="440" font-size="12" font-weight="700" fill="#7A4CFF" letter-spacing="1.5">EMAIL</text>
  <text x="648" y="464" font-size="18" font-weight="600" fill="#0B1F3A">info@appnitytechnologies.com</text>
  <text x="648" y="496" font-size="12" font-weight="700" fill="#7A4CFF" letter-spacing="1.5">LOCATION</text>
  <text x="648" y="520" font-size="18" font-weight="600" fill="#0B1F3A">India · Serving Globally</text>

  <!-- Footer -->
  <rect x="0" y="568" width="1200" height="62" fill="#F6F7FF"/>
  <text x="600" y="607" font-size="16" fill="#6B7A9B" text-anchor="middle">Mobile Apps · Web Platforms · UI/UX Design · Cloud Solutions</text>
</svg>
