<svg width="1584" height="396" viewBox="0 0 1584 396" fill="none" xmlns="http://www.w3.org/2000/svg">
  <defs>

    <linearGradient id="bg" x1="0" y1="0" x2="0" y2="396" gradientUnits="userSpaceOnUse">
      <stop offset="0%"   stop-color="#FFFFFF"/>
      <stop offset="100%" stop-color="#F2F4FA"/>
    </linearGradient>

    <linearGradient id="brandH" x1="0" y1="0" x2="1584" y2="0" gradientUnits="userSpaceOnUse">
      <stop offset="0%"   stop-color="#3D6CFF"/>
      <stop offset="50%"  stop-color="#7A4CFF"/>
      <stop offset="100%" stop-color="#B14CFF"/>
    </linearGradient>

    <linearGradient id="brandFade" x1="340" y1="0" x2="960" y2="0" gradientUnits="userSpaceOnUse">
      <stop offset="0%"   stop-color="#3D6CFF"/>
      <stop offset="50%"  stop-color="#7A4CFF"/>
      <stop offset="100%" stop-color="#B14CFF" stop-opacity="0"/>
    </linearGradient>

    <!-- Icon gradient (diagonal, objectBoundingBox — works wherever the rect is placed) -->
    <linearGradient id="iconGrad" x1="0" y1="0" x2="1" y2="1" gradientUnits="objectBoundingBox">
      <stop offset="0%"   stop-color="#3D6CFF"/>
      <stop offset="55%"  stop-color="#7A4CFF"/>
      <stop offset="100%" stop-color="#B14CFF"/>
    </linearGradient>

    <radialGradient id="orbBlue">
      <stop offset="0%" stop-color="#3D6CFF" stop-opacity="0.12"/>
      <stop offset="100%" stop-color="#3D6CFF" stop-opacity="0"/>
    </radialGradient>
    <radialGradient id="orbPurple">
      <stop offset="0%" stop-color="#7A4CFF" stop-opacity="0.10"/>
      <stop offset="100%" stop-color="#7A4CFF" stop-opacity="0"/>
    </radialGradient>
    <radialGradient id="orbMagenta">
      <stop offset="0%" stop-color="#B14CFF" stop-opacity="0.08"/>
      <stop offset="100%" stop-color="#B14CFF" stop-opacity="0"/>
    </radialGradient>

  </defs>

  <!-- ── BACKGROUND ── -->
  <rect width="1584" height="396" fill="url(#bg)"/>

  <!-- Subtle dot grid (right half) -->
  <g opacity="0.04" fill="#3D6CFF">
    <circle cx="924" cy="48" r="1.8"/><circle cx="952" cy="48" r="1.8"/><circle cx="980" cy="48" r="1.8"/><circle cx="1008" cy="48" r="1.8"/><circle cx="1036" cy="48" r="1.8"/><circle cx="1064" cy="48" r="1.8"/><circle cx="1092" cy="48" r="1.8"/><circle cx="1120" cy="48" r="1.8"/><circle cx="1148" cy="48" r="1.8"/><circle cx="1176" cy="48" r="1.8"/><circle cx="1204" cy="48" r="1.8"/><circle cx="1232" cy="48" r="1.8"/><circle cx="1260" cy="48" r="1.8"/><circle cx="1288" cy="48" r="1.8"/><circle cx="1316" cy="48" r="1.8"/><circle cx="1344" cy="48" r="1.8"/><circle cx="1372" cy="48" r="1.8"/><circle cx="1400" cy="48" r="1.8"/><circle cx="1428" cy="48" r="1.8"/><circle cx="1456" cy="48" r="1.8"/><circle cx="1484" cy="48" r="1.8"/><circle cx="1512" cy="48" r="1.8"/><circle cx="1540" cy="48" r="1.8"/>
    <circle cx="924" cy="76" r="1.8"/><circle cx="952" cy="76" r="1.8"/><circle cx="980" cy="76" r="1.8"/><circle cx="1008" cy="76" r="1.8"/><circle cx="1036" cy="76" r="1.8"/><circle cx="1064" cy="76" r="1.8"/><circle cx="1092" cy="76" r="1.8"/><circle cx="1120" cy="76" r="1.8"/><circle cx="1148" cy="76" r="1.8"/><circle cx="1176" cy="76" r="1.8"/><circle cx="1204" cy="76" r="1.8"/><circle cx="1232" cy="76" r="1.8"/><circle cx="1260" cy="76" r="1.8"/><circle cx="1288" cy="76" r="1.8"/><circle cx="1316" cy="76" r="1.8"/><circle cx="1344" cy="76" r="1.8"/><circle cx="1372" cy="76" r="1.8"/><circle cx="1400" cy="76" r="1.8"/><circle cx="1428" cy="76" r="1.8"/><circle cx="1456" cy="76" r="1.8"/><circle cx="1484" cy="76" r="1.8"/><circle cx="1512" cy="76" r="1.8"/><circle cx="1540" cy="76" r="1.8"/>
    <circle cx="924" cy="104" r="1.8"/><circle cx="952" cy="104" r="1.8"/><circle cx="980" cy="104" r="1.8"/><circle cx="1008" cy="104" r="1.8"/><circle cx="1036" cy="104" r="1.8"/><circle cx="1064" cy="104" r="1.8"/><circle cx="1092" cy="104" r="1.8"/><circle cx="1120" cy="104" r="1.8"/><circle cx="1148" cy="104" r="1.8"/><circle cx="1176" cy="104" r="1.8"/><circle cx="1204" cy="104" r="1.8"/><circle cx="1232" cy="104" r="1.8"/><circle cx="1260" cy="104" r="1.8"/><circle cx="1288" cy="104" r="1.8"/><circle cx="1316" cy="104" r="1.8"/><circle cx="1344" cy="104" r="1.8"/><circle cx="1372" cy="104" r="1.8"/><circle cx="1400" cy="104" r="1.8"/><circle cx="1428" cy="104" r="1.8"/><circle cx="1456" cy="104" r="1.8"/><circle cx="1484" cy="104" r="1.8"/><circle cx="1512" cy="104" r="1.8"/><circle cx="1540" cy="104" r="1.8"/>
    <circle cx="924" cy="132" r="1.8"/><circle cx="952" cy="132" r="1.8"/><circle cx="980" cy="132" r="1.8"/><circle cx="1008" cy="132" r="1.8"/><circle cx="1036" cy="132" r="1.8"/><circle cx="1064" cy="132" r="1.8"/><circle cx="1092" cy="132" r="1.8"/><circle cx="1120" cy="132" r="1.8"/><circle cx="1148" cy="132" r="1.8"/><circle cx="1176" cy="132" r="1.8"/>
    <circle cx="924" cy="160" r="1.8"/><circle cx="952" cy="160" r="1.8"/><circle cx="980" cy="160" r="1.8"/><circle cx="1008" cy="160" r="1.8"/><circle cx="1036" cy="160" r="1.8"/>
  </g>

  <!-- Soft orbs -->
  <ellipse cx="1420" cy="80"  rx="280" ry="260" fill="url(#orbBlue)"/>
  <ellipse cx="1530" cy="310" rx="220" ry="200" fill="url(#orbPurple)"/>
  <ellipse cx="1200" cy="260" rx="180" ry="160" fill="url(#orbMagenta)"/>
  <ellipse cx="120"  cy="260" rx="180" ry="160" fill="url(#orbPurple)"/>

  <!-- ── TOP GRADIENT BAR ── -->
  <rect x="0" y="0" width="1584" height="6" fill="url(#brandH)"/>

  <!-- ── RIGHT RING DECORATION ── -->
  <circle cx="1430" cy="198" r="155" fill="none" stroke="rgba(61,108,255,0.09)"  stroke-width="1.5"/>
  <circle cx="1430" cy="198" r="105" fill="none" stroke="rgba(122,76,255,0.08)" stroke-width="1"/>
  <circle cx="1430" cy="198" r="55"  fill="rgba(122,76,255,0.04)" stroke="rgba(122,76,255,0.14)" stroke-width="1"/>
  <line x1="1430" y1="198" x2="1430" y2="43"  stroke="rgba(122,76,255,0.13)" stroke-width="1" stroke-dasharray="4 5"/>
  <line x1="1430" y1="198" x2="1585" y2="198" stroke="rgba(61,108,255,0.11)"  stroke-width="1" stroke-dasharray="4 5"/>
  <circle cx="1430" cy="43"  r="5" fill="#7A4CFF" opacity="0.5"/>
  <circle cx="1430" cy="353" r="5" fill="#B14CFF" opacity="0.5"/>
  <circle cx="1275" cy="198" r="5" fill="#3D6CFF" opacity="0.5"/>
  <circle cx="1430" cy="198" r="9"  fill="rgba(122,76,255,0.14)" stroke="rgba(122,76,255,0.4)" stroke-width="1.5"/>
  <circle cx="1430" cy="198" r="4"  fill="#7A4CFF" opacity="0.75"/>


  <!-- ══════════════════════════════════════════════════ -->
  <!-- ── FULL LOGO (icon + wordmark) — scale 1.2       ── -->
  <!-- Logo viewBox: 0 0 232 91 → rendered: 278 × 109   -->
  <!-- Positioned at x=340, y=75                         -->
  <!-- ══════════════════════════════════════════════════ -->
  <g transform="translate(340, 75) scale(1.2)">

    <!-- Icon background: GRADIENT (replaces #0077B6) -->
    <rect width="77" height="77" rx="25" fill="url(#iconGrad)"/>

    <!-- A letterform — white -->
    <path d="M18.4557 73.9681C17.9593 75.1961 16.7672 76 15.4426 76H10.2534C7.92853 76 6.35557 73.6299 7.25862 71.4876L31.918 12.9876C32.4257 11.7831 33.6057 11 34.9128 11H43.4813C44.7794 11 45.953 11.7725 46.4664 12.9648L71.6539 71.4648C72.5775 73.6099 71.0044 76 68.6688 76H62.9119C61.5982 76 60.4137 75.2092 59.9101 73.9958L54.2161 60.2769C53.7125 59.0636 52.5281 58.2727 51.2144 58.2727H36.7121C34.4214 58.2727 32.8495 55.9663 33.6872 53.8342L35.241 49.8797C35.7296 48.636 36.9297 47.8182 38.2659 47.8182H44.1786C46.497 47.8182 48.0699 45.4602 47.1792 43.3197L41.9387 30.7248C40.8222 28.0415 37.0142 28.0608 35.925 30.7552L18.4557 73.9681Z" fill="white"/>
    <path d="M46.7487 74.0699L43.1376 65.945C42.1824 63.7958 43.7556 61.375 46.1075 61.375H47.9319C49.2163 61.375 50.3802 62.1314 50.9018 63.3051L54.5129 71.43C55.4681 73.5792 53.8949 76 51.543 76H49.7186C48.4342 76 47.2704 75.2436 46.7487 74.0699Z" fill="white"/>

    <!-- "Technologies" wordmark paths — original #4DA7E4 -->
    <path d="M130.583 73.75V71.5H139.278V73.75H136.222V84H133.639V73.75H130.583ZM143.439 84.2778C142.504 84.2778 141.68 84.0833 140.967 83.6944C140.254 83.3056 139.698 82.7731 139.3 82.0972C138.902 81.412 138.703 80.6296 138.703 79.75C138.703 78.9074 138.898 78.162 139.286 77.5139C139.675 76.8565 140.198 76.338 140.856 75.9583C141.523 75.5787 142.259 75.3889 143.064 75.3889C143.888 75.3889 144.624 75.5787 145.273 75.9583C145.921 76.3287 146.43 76.838 146.8 77.4861C147.18 78.1343 147.37 78.8704 147.37 79.6944V80.5417H142.286C142.055 80.5417 141.833 80.5278 141.62 80.5C141.407 80.4722 141.194 80.4398 140.981 80.4028C141.092 80.9583 141.365 81.412 141.8 81.7639C142.245 82.1065 142.81 82.2778 143.495 82.2778C144.023 82.2778 144.495 82.1713 144.911 81.9583C145.337 81.7454 145.685 81.4815 145.953 81.1667L146.481 83.3333C146.064 83.6481 145.592 83.8843 145.064 84.0417C144.546 84.1991 144.004 84.2778 143.439 84.2778ZM140.925 78.9444C141.388 78.8426 141.842 78.7917 142.286 78.7917H143.759C144.018 78.7917 144.263 78.8009 144.495 78.8194C144.726 78.838 144.944 78.8704 145.148 78.9167C145.009 78.4167 144.754 78.0231 144.384 77.7361C144.023 77.4491 143.573 77.3056 143.036 77.3056C142.527 77.3056 142.083 77.4537 141.703 77.75C141.333 78.037 141.073 78.4352 140.925 78.9444ZM152.793 84.2778C151.969 84.2778 151.214 84.0787 150.529 83.6806C149.844 83.2824 149.298 82.7454 148.89 82.0694C148.492 81.3935 148.293 80.6481 148.293 79.8333C148.293 79.0093 148.492 78.2639 148.89 77.5972C149.298 76.9213 149.844 76.3843 150.529 75.9861C151.214 75.588 151.969 75.3889 152.793 75.3889C153.367 75.3889 153.909 75.4861 154.418 75.6806C154.936 75.8657 155.395 76.1435 155.793 76.5139L155.168 78.9722C154.936 78.5926 154.626 78.2639 154.237 77.9861C153.858 77.6991 153.409 77.5556 152.89 77.5556C152.455 77.5556 152.066 77.6574 151.724 77.8611C151.381 78.0648 151.112 78.338 150.918 78.6806C150.724 79.0231 150.626 79.4074 150.626 79.8333C150.626 80.25 150.724 80.6343 150.918 80.9861C151.112 81.3287 151.381 81.6019 151.724 81.8056C152.066 82.0093 152.455 82.1111 152.89 82.1111C153.409 82.1111 153.858 81.9722 154.237 81.6944C154.626 81.4074 154.936 81.0741 155.168 80.6944L155.793 83.1528C155.395 83.5231 154.936 83.8056 154.418 84C153.909 84.1852 153.367 84.2778 152.793 84.2778ZM157.049 84V70.6667H159.466V76.2917C159.762 75.9954 160.1 75.7731 160.48 75.625C160.869 75.4676 161.281 75.3889 161.716 75.3889C162.309 75.3889 162.86 75.5324 163.369 75.8194C163.887 76.0972 164.304 76.5093 164.619 77.0556C164.943 77.5926 165.105 78.2454 165.105 79.0139V84H162.688V79.3333C162.688 78.8704 162.549 78.4583 162.272 78.0972C161.994 77.7361 161.596 77.5556 161.077 77.5556C160.661 77.5556 160.286 77.6991 159.952 77.9861C159.628 78.2639 159.466 78.7037 159.466 79.3056V84H157.049ZM166.776 84V75.6667H168.943V76.5833C169.239 76.1944 169.605 75.8981 170.04 75.6944C170.475 75.4907 170.943 75.3889 171.443 75.3889C172.035 75.3889 172.586 75.5324 173.095 75.8194C173.614 76.0972 174.031 76.5093 174.345 77.0556C174.67 77.5926 174.832 78.2454 174.832 79.0139V84H172.415V79.3333C172.415 78.8704 172.276 78.4583 171.998 78.0972C171.72 77.7361 171.322 77.5556 170.804 77.5556C170.387 77.5556 170.012 77.6991 169.679 77.9861C169.355 78.2639 169.193 78.7037 169.193 79.3056V84H166.776ZM180.586 84.2778C179.762 84.2778 179.007 84.0787 178.322 83.6806C177.637 83.2824 177.091 82.7454 176.683 82.0694C176.285 81.3935 176.086 80.6481 176.086 79.8333C176.086 79.0093 176.285 78.2639 176.683 77.5972C177.091 76.9213 177.637 76.3843 178.322 75.9861C179.007 75.588 179.762 75.3889 180.586 75.3889C181.419 75.3889 182.174 75.588 182.85 75.9861C183.535 76.3843 184.077 76.9213 184.475 77.5972C184.882 78.2639 185.086 79.0093 185.086 79.8333C185.086 80.6481 184.882 81.3935 184.475 82.0694C184.077 82.7454 183.535 83.2824 182.85 83.6806C182.174 84.0787 181.419 84.2778 180.586 84.2778ZM180.586 82.1111C181.003 82.1111 181.378 82.0093 181.711 81.8056C182.054 81.6019 182.322 81.3287 182.516 80.9861C182.72 80.6343 182.822 80.25 182.822 79.8333C182.822 79.4074 182.72 79.0231 182.516 78.6806C182.322 78.338 182.054 78.0648 181.711 77.8611C181.378 77.6574 181.003 77.5556 180.586 77.5556C180.169 77.5556 179.79 77.6574 179.447 77.8611C179.114 78.0648 178.845 78.338 178.641 78.6806C178.447 79.0231 178.35 79.4074 178.35 79.8333C178.35 80.25 178.447 80.6343 178.641 80.9861C178.845 81.3287 179.114 81.6019 179.447 81.8056C179.79 82.0093 180.169 82.1111 180.586 82.1111ZM186.53 84V70.6667H188.947V84H186.53ZM194.883 84.2778C194.059 84.2778 193.304 84.0787 192.619 83.6806C191.934 83.2824 191.387 82.7454 190.98 82.0694C190.582 81.3935 190.383 80.6481 190.383 79.8333C190.383 79.0093 190.582 78.2639 190.98 77.5972C191.387 76.9213 191.934 76.3843 192.619 75.9861C193.304 75.588 194.059 75.3889 194.883 75.3889C195.716 75.3889 196.471 75.588 197.147 75.9861C197.832 76.3843 198.374 76.9213 198.772 77.5972C199.179 78.2639 199.383 79.0093 199.383 79.8333C199.383 80.6481 199.179 81.3935 198.772 82.0694C198.374 82.7454 197.832 83.2824 197.147 83.6806C196.471 84.0787 195.716 84.2778 194.883 84.2778ZM194.883 82.1111C195.299 82.1111 195.674 82.0093 196.008 81.8056C196.35 81.6019 196.619 81.3287 196.813 80.9861C197.017 80.6343 197.119 80.25 197.119 79.8333C197.119 79.4074 197.017 79.0231 196.813 78.6806C196.619 78.338 196.35 78.0648 196.008 77.8611C195.674 77.6574 195.299 77.5556 194.883 77.5556C194.466 77.5556 194.087 77.6574 193.744 77.8611C193.411 78.0648 193.142 78.338 192.938 78.6806C192.744 79.0231 192.647 79.4074 192.647 79.8333C192.647 80.25 192.744 80.6343 192.938 80.9861C193.142 81.3287 193.411 81.6019 193.744 81.8056C194.087 82.0093 194.466 82.1111 194.883 82.1111ZM204.438 88.4444C203.79 88.4444 203.17 88.3472 202.577 88.1528C201.994 87.9676 201.489 87.713 201.063 87.3889L201.647 85C201.943 85.3981 202.332 85.7222 202.813 85.9722C203.295 86.2315 203.837 86.3611 204.438 86.3611C205.29 86.3611 205.952 86.1157 206.424 85.625C206.897 85.1435 207.133 84.5231 207.133 83.7639V83.1806C206.818 83.5046 206.438 83.7593 205.994 83.9444C205.559 84.1296 205.077 84.2222 204.549 84.2222C203.781 84.2222 203.082 84.0231 202.452 83.625C201.823 83.2269 201.318 82.6991 200.938 82.0417C200.568 81.375 200.383 80.6389 200.383 79.8333C200.383 79.0278 200.568 78.2917 200.938 77.625C201.318 76.9583 201.823 76.4306 202.452 76.0417C203.082 75.6435 203.781 75.4444 204.549 75.4444C205.087 75.4444 205.577 75.5417 206.022 75.7361C206.466 75.9213 206.846 76.1806 207.161 76.5139V75.6667H209.244V84.1111C209.244 85.0185 209.022 85.7963 208.577 86.4444C208.133 87.0926 207.545 87.588 206.813 87.9306C206.082 88.2731 205.29 88.4444 204.438 88.4444ZM204.841 82.0972C205.249 82.0972 205.619 81.9954 205.952 81.7917C206.286 81.588 206.549 81.3148 206.744 80.9722C206.948 80.6296 207.049 80.25 207.049 79.8333C207.049 79.4167 206.948 79.037 206.744 78.6944C206.549 78.3519 206.286 78.0787 205.952 77.875C205.619 77.6713 205.249 77.5694 204.841 77.5694C204.434 77.5694 204.063 77.6713 203.73 77.875C203.397 78.0787 203.128 78.3519 202.924 78.6944C202.73 79.037 202.633 79.4167 202.633 79.8333C202.633 80.25 202.73 80.6296 202.924 80.9722C203.128 81.3148 203.397 81.588 203.73 81.7917C204.063 81.9954 204.434 82.0972 204.841 82.0972ZM211.101 84V75.6667H213.517V84H211.101ZM212.309 74.4583C211.948 74.4583 211.642 74.3333 211.392 74.0833C211.142 73.8333 211.017 73.5278 211.017 73.1667C211.017 72.7963 211.142 72.4907 211.392 72.25C211.642 72 211.948 71.875 212.309 71.875C212.679 71.875 212.985 72 213.226 72.25C213.476 72.4907 213.601 72.7963 213.601 73.1667C213.601 73.5278 213.476 73.8333 213.226 74.0833C212.985 74.3333 212.679 74.4583 212.309 74.4583ZM219.689 84.2778C218.754 84.2778 217.93 84.0833 217.217 83.6944C216.504 83.3056 215.948 82.7731 215.55 82.0972C215.152 81.412 214.953 80.6296 214.953 79.75C214.953 78.9074 215.148 78.162 215.536 77.5139C215.925 76.8565 216.448 76.338 217.106 75.9583C217.773 75.5787 218.509 75.3889 219.314 75.3889C220.138 75.3889 220.874 75.5787 221.523 75.9583C222.171 76.3287 222.68 76.838 223.05 77.4861C223.43 78.1343 223.62 78.8704 223.62 79.6944V80.5417H218.536C218.305 80.5417 218.083 80.5278 217.87 80.5C217.657 80.4722 217.444 80.4398 217.231 80.4028C217.342 80.9583 217.615 81.412 218.05 81.7639C218.495 82.1065 219.06 82.2778 219.745 82.2778C220.273 82.2778 220.745 82.1713 221.161 81.9583C221.587 81.7454 221.935 81.4815 222.203 81.1667L222.731 83.3333C222.314 83.6481 221.842 83.8843 221.314 84.0417C220.796 84.1991 220.254 84.2778 219.689 84.2778ZM217.175 78.9444C217.638 78.8426 218.092 78.7917 218.536 78.7917H220.009C220.268 78.7917 220.513 78.8009 220.745 78.8194C220.976 78.838 221.194 78.8704 221.398 78.9167C221.259 78.4167 221.004 78.0231 220.634 77.7361C220.273 77.4491 219.823 77.3056 219.286 77.3056C218.777 77.3056 218.333 77.4537 217.953 77.75C217.583 78.037 217.323 78.4352 217.175 78.9444ZM227.696 84.2778C227.131 84.2778 226.557 84.1852 225.974 84C225.399 83.8148 224.95 83.5648 224.626 83.25L225.224 80.9722C225.492 81.3426 225.862 81.6667 226.335 81.9444C226.816 82.2222 227.311 82.3611 227.821 82.3611C228.163 82.3611 228.409 82.2963 228.557 82.1667C228.714 82.037 228.793 81.8796 228.793 81.6944C228.793 81.4815 228.714 81.3287 228.557 81.2361C228.399 81.1343 228.237 81.0509 228.071 80.9861L226.904 80.5417C226.645 80.4398 226.349 80.3009 226.015 80.125C225.682 79.9491 225.39 79.6991 225.14 79.375C224.899 79.0509 224.779 78.625 224.779 78.0972C224.779 77.6157 224.899 77.1713 225.14 76.7639C225.381 76.3565 225.728 76.0278 226.182 75.7778C226.645 75.5185 227.2 75.3889 227.849 75.3889C228.45 75.3889 229.011 75.4907 229.529 75.6944C230.057 75.8981 230.441 76.125 230.682 76.375L230.126 78.5694C229.811 78.162 229.436 77.8519 229.001 77.6389C228.575 77.4167 228.168 77.3056 227.779 77.3056C227.483 77.3056 227.265 77.3657 227.126 77.4861C226.987 77.6065 226.918 77.7454 226.918 77.9028C226.918 78.0231 226.964 78.1435 227.057 78.2639C227.159 78.375 227.325 78.4769 227.557 78.5694L228.64 78.9722C228.955 79.0833 229.288 79.2315 229.64 79.4167C230.001 79.6019 230.307 79.8611 230.557 80.1944C230.807 80.5185 230.932 80.9676 230.932 81.5417C230.932 82.3472 230.631 83.0046 230.029 83.5139C229.436 84.0231 228.659 84.2778 227.696 84.2778Z" fill="#4DA7E4"/>

    <!-- "Appnity" wordmark paths — original #0077B6 -->
    <path d="M82.475 70.25V36.5H88.1V38.7125C88.975 37.8375 90 37.15 91.175 36.65C92.375 36.15 93.6875 35.9 95.1125 35.9C97.2125 35.9 99.1125 36.4375 100.813 37.5125C102.513 38.5625 103.863 39.9875 104.863 41.7875C105.888 43.5875 106.4 45.575 106.4 47.75C106.4 49.925 105.888 51.9125 104.863 53.7125C103.863 55.4875 102.513 56.9125 100.813 57.9875C99.1125 59.0625 97.2125 59.6 95.1125 59.6C93.9125 59.6 92.8 59.4125 91.775 59.0375C90.75 58.6875 89.825 58.2 89 57.575V70.25H82.475ZM94.3625 53.8625C95.4625 53.8625 96.4625 53.5875 97.3625 53.0375C98.2625 52.4875 98.975 51.75 99.5 50.825C100.05 49.9 100.325 48.875 100.325 47.75C100.325 46.625 100.05 45.6 99.5 44.675C98.975 43.75 98.2625 43.0125 97.3625 42.4625C96.4625 41.9125 95.4625 41.6375 94.3625 41.6375C93.2625 41.6375 92.2625 41.9125 91.3625 42.4625C90.4625 43.0125 89.7375 43.75 89.1875 44.675C88.6625 45.6 88.4 46.625 88.4 47.75C88.4 48.875 88.6625 49.9 89.1875 50.825C89.7375 51.75 90.4625 52.4875 91.3625 53.0375C92.2625 53.5875 93.2625 53.8625 94.3625 53.8625ZM110.213 70.25V36.5H115.838V38.7125C116.713 37.8375 117.738 37.15 118.913 36.65C120.113 36.15 121.426 35.9 122.851 35.9C124.951 35.9 126.851 36.4375 128.551 37.5125C130.251 38.5625 131.601 39.9875 132.601 41.7875C133.626 43.5875 134.138 45.575 134.138 47.75C134.138 49.925 133.626 51.9125 132.601 53.7125C131.601 55.4875 130.251 56.9125 128.551 57.9875C126.851 59.0625 124.951 59.6 122.851 59.6C121.651 59.6 120.538 59.4125 119.513 59.0375C118.488 58.6875 117.563 58.2 116.738 57.575V70.25H110.213ZM122.101 53.8625C123.201 53.8625 124.201 53.5875 125.101 53.0375C126.001 52.4875 126.713 51.75 127.238 50.825C127.788 49.9 128.063 48.875 128.063 47.75C128.063 46.625 127.788 45.6 127.238 44.675C126.713 43.75 126.001 43.0125 125.101 42.4625C124.201 41.9125 123.201 41.6375 122.101 41.6375C121.001 41.6375 120.001 41.9125 119.101 42.4625C118.201 43.0125 117.476 43.75 116.926 44.675C116.401 45.6 116.138 46.625 116.138 47.75C116.138 48.875 116.401 49.9 116.926 50.825C117.476 51.75 118.201 52.4875 119.101 53.0375C120.001 53.5875 121.001 53.8625 122.101 53.8625ZM137.952 59V36.5H143.802V38.975C144.602 37.925 145.589 37.125 146.764 36.575C147.939 36.025 149.202 35.75 150.552 35.75C152.152 35.75 153.639 36.1375 155.014 36.9125C156.414 37.6625 157.539 38.775 158.389 40.25C159.264 41.7 159.702 43.4625 159.702 45.5375V59H153.177V46.4C153.177 45.15 152.802 44.0375 152.052 43.0625C151.302 42.0875 150.227 41.6 148.827 41.6C147.702 41.6 146.689 41.9875 145.789 42.7625C144.914 43.5125 144.477 44.7 144.477 46.325V59H137.952ZM164.288 59V36.5H170.813V59H164.288ZM167.551 33.2375C166.576 33.2375 165.751 32.9 165.076 32.225C164.401 31.55 164.063 30.725 164.063 29.75C164.063 28.75 164.401 27.925 165.076 27.275C165.751 26.6 166.576 26.2625 167.551 26.2625C168.551 26.2625 169.376 26.6 170.026 27.275C170.701 27.925 171.038 28.75 171.038 29.75C171.038 30.725 170.701 31.55 170.026 32.225C169.376 32.9 168.551 33.2375 167.551 33.2375ZM178.44 59V41.675H174.24V36.5H178.552V29H184.852V36.5H189.315V41.675H184.965V59H178.44ZM192.127 70.25L199.627 55.175L190.44 36.5H197.64L201.615 44.75C201.965 45.5 202.265 46.1875 202.515 46.8125C202.79 47.4125 203.015 48 203.19 48.575C203.39 48 203.627 47.4125 203.902 46.8125C204.177 46.1875 204.502 45.5 204.877 44.75L208.927 36.5H215.865L199.14 70.25H192.127Z" fill="#0077B6"/>

  </g>
  <!-- ══════════════════════════════════════════════════ -->


  <!-- ── SEPARATOR (below logo) ── -->
  <rect x="340" y="200" width="640" height="1.5" fill="url(#brandFade)" opacity="0.5"/>

  <!-- ── TAGLINE ── -->
  <text x="340" y="226" font-family="Inter, -apple-system, BlinkMacSystemFont, 'Segoe UI', sans-serif"
        font-size="20" font-weight="700" letter-spacing="-0.3" fill="#0B1F3A">Driven by Innovation, Committed to Excellence.</text>

  <!-- ── SERVICE CHIPS ── -->
  <rect x="340" y="246" width="112" height="26" rx="13" fill="#EEF2FF" stroke="#BFCFFF" stroke-width="1"/>
  <text x="396" y="263" font-family="Inter, -apple-system, sans-serif" font-size="11" font-weight="600" fill="#3D6CFF" text-anchor="middle">Mobile Apps</text>

  <rect x="462" y="246" width="92" height="26" rx="13" fill="#F0EBFF" stroke="#C9B8FF" stroke-width="1"/>
  <text x="508" y="263" font-family="Inter, -apple-system, sans-serif" font-size="11" font-weight="600" fill="#7A4CFF" text-anchor="middle">Web Apps</text>

  <rect x="564" y="246" width="64" height="26" rx="13" fill="#F6ECFF" stroke="#DEC0FF" stroke-width="1"/>
  <text x="596" y="263" font-family="Inter, -apple-system, sans-serif" font-size="11" font-weight="600" fill="#A14CFF" text-anchor="middle">UI/UX</text>

  <rect x="638" y="246" width="66" height="26" rx="13" fill="#E8FFF6" stroke="#A3E8D0" stroke-width="1"/>
  <text x="671" y="263" font-family="Inter, -apple-system, sans-serif" font-size="11" font-weight="600" fill="#0B9E6A" text-anchor="middle">Cloud</text>

  <rect x="714" y="246" width="130" height="26" rx="13" fill="#EEF2FF" stroke="#BFCFFF" stroke-width="1"/>
  <text x="779" y="263" font-family="Inter, -apple-system, sans-serif" font-size="11" font-weight="600" fill="#3D6CFF" text-anchor="middle">Digital Marketing</text>

  <!-- ── STATS ── -->
  <text x="340" y="308" font-family="Inter, -apple-system, BlinkMacSystemFont, sans-serif"
        font-size="13" fill="rgba(11,31,58,0.42)" letter-spacing="0.1">
    100+ Projects Delivered  ·  8+ Years of Excellence  ·  98% Client Satisfaction
  </text>

  <!-- ── WEBSITE URL (bottom right) ── -->
  <text x="1495" y="358" font-family="Inter, -apple-system, BlinkMacSystemFont, 'Segoe UI', sans-serif"
        font-size="13.5" font-weight="500" fill="rgba(11,31,58,0.42)" text-anchor="end">
    www.appnitytechnologies.com
  </text>

  <!-- ── BOTTOM BORDER ── -->
  <rect x="0" y="390" width="1584" height="2" fill="url(#brandH)" opacity="0.2"/>

</svg>
